<?xml version="1.0" encoding="utf-8"?>
<!-- Generator: Adobe Illustrator 23.0.3, SVG Export Plug-In . SVG Version: 6.00 Build 0)  -->
<svg version="1.1" id="js" xmlns="http://www.w3.org/2000/svg" xmlns:xlink="http://www.w3.org/1999/xlink" x="0px" y="0px"
	 viewBox="0 0 373 373" style="enable-background:new 0 0 373 373;" xml:space="preserve">
<style type="text/css">
	.st0{fill:#E0E04F;}
</style>
<g id="back">
	<path class="st0" d="M353,366H19c-6.6,0-12-5.4-12-12V20c0-6.6,5.4-12,12-12h334c6.6,0,12,5.4,12,12v334
		C365,360.6,359.6,366,353,366z"/>
</g>
<g id="symbols">
	<g id="gr">
		<path id="script" d="M166,160h38v106.5c0,48-23,64.75-59.75,64.75c-9,0-20.5-1.5-28-4l4.25-30.75c5.25,1.75,12,3,19.5,3
			c16,0,26-7.25,26-33.25V160z"/>
		<path id="java" d="M236.99,289.5c10,5.25,26,10.5,42.25,10.5c17.5,0,26.75-7.25,26.75-18.5c0-10.25-8-16.5-28.25-23.5
			c-28-10-46.5-25.5-46.5-50.25c0-28.75,24.25-50.5,63.75-50.5c19.25,0,33,3.75,43,8.5l-8.5,30.5c-6.5-3.25-18.75-8-35-8
			c-16.5,0-24.5,7.75-24.5,16.25c0,10.75,9.25,15.5,31.25,24c29.75,11,43.5,26.5,43.5,50.5c0,28.25-21.5,52.25-67.75,52.25
			c-19.25,0-38.25-5.25-47.75-10.5L236.99,289.5z"/>
	</g>
</g>
</svg>
